PathFileType	4	(X/Y/Z)	Patient5_TMGait_0pt45_1_left_02.trc.trc
DataRate	CameraRate	NumFrames	NumMarkers	Units	OrigDataRate	OrigDataStartFrame	OrigNumFrames
59.322033898305	59.322033898305	5	32	mm	59.322033898305	53	       141
Frame#	Time	R.ASIS			L.ASIS			Chest			R.Shoulder			Neck			L.Shoulder			L.Elbow			L.Wrist			R.Elbow			R.Wrist			L.Thigh.Superior			L.Thigh.Lateral			L.Thigh.Inferior			L.Patella			L.Shank.Superior			L.Shank.Lateral			L.Shank.Inferior			L.Heel			L.Midfoot.Lateral			L.Midfoot.Superior			L.Toe			R.Thigh.Superior			R.Thigh.Lateral			R.Thigh.Inferior			R.Patella			R.Shank.Superior			R.Shank.Lateral			R.Shank.Inferior			R.Heel			R.Midfoot.Lateral			R.Midfoot.Superior			R.Toe			
		X1	Y1	Z1	X2	Y2	Z2	X3	Y3	Z3	X4	Y4	Z4	X5	Y5	Z5	X6	Y6	Z6	X7	Y7	Z7	X8	Y8	Z8	X9	Y9	Z9	X10	Y10	Z10	X11	Y11	Z11	X12	Y12	Z12	X13	Y13	Z13	X14	Y14	Z14	X15	Y15	Z15	X16	Y16	Z16	X17	Y17	Z17	X18	Y18	Z18	X19	Y19	Z19	X20	Y20	Z20	X21	Y21	Z21	X22	Y22	Z22	X23	Y23	Z23	X24	Y24	Z24	X25	Y25	Z25	X26	Y26	Z26	X27	Y27	Z27	X28	Y28	Z28	X29	Y29	Z29	X30	Y30	Z30	X31	Y31	Z31	X32	Y32	Z32	

53	2.576571428571	928.429543310048	994.311030223218	567.461135617052	979.049720699806	966.011962818210	329.334970442878	1045.064946609413	1439.549638938221	466.562649798341	917.699786897308	1511.083410203546	609.413927724118	935.518033276873	1569.646496168046	425.754663902662	1032.086156459726	1508.351172873477	263.299585664687	976.838535420459	1192.470064550345	117.465652898994	1114.740932904906	942.113648705513	131.279081449167	806.352019410602	1189.635949557111	725.595692003531	1019.037172535371	992.606915143568	710.900205057780	1006.075047239721	750.259851714614	325.819303707078	941.936656857313	674.984480770300	280.741601181712	1009.966708447029	624.072636869716	355.507841636973	1015.875033208420	507.728429495141	368.439676339215	967.814191466450	402.662260863994	383.414832584937	914.424114871476	332.386899786942	298.713251503861	935.420402446776	280.664972157318	391.760376729030	805.542007010179	49.623280548115	385.318629102397	898.120942156126	27.090481875988	329.848354996154	991.919795486300	88.335210149133	381.895077599027	1098.999487111949	44.811787646003	392.612900656924	973.491601266399	779.418593191736	615.845599779644	887.191480740247	702.895926337694	670.613994890724	982.511653455764	645.523229950267	620.479694237841	976.211250928619	538.187659032314	660.191466292905	885.928826706656	447.819653216937	615.850738223937	780.492820769177	430.110819703068	690.398948328145	793.452416718232	339.856851458312	609.504715928365	571.977675176019	232.154813499967	568.062742940088	607.415668411140	147.554846423348	630.177063860383	733.688088786148	137.945268368608	624.165219990496	790.019716029467	42.432343084670	611.023232916843	
54	2.593428571429	927.252292811897	996.096118933581	567.198508812486	977.944921740832	966.563590472629	327.968448392563	1043.270281336088	1441.340738135777	464.382504865757	915.326557582679	1512.467208076988	607.005365847468	933.512714371519	1570.905895588270	423.383269452307	1030.468774056493	1509.962982776742	261.225194072066	978.571245700135	1193.002894017335	116.268762600116	1119.692148915463	944.533773241780	130.894997378521	803.754638308568	1190.773780264011	722.514242245344	1017.617546486258	994.966219179387	708.076484806935	1002.533588465450	749.666737266570	324.818164587750	936.904709191078	675.322197820096	280.252768922779	1004.822372044554	623.391821585446	354.287331191570	1009.386658313233	507.316171670262	366.917450945781	961.100134480566	402.648075820598	382.350218472997	906.632209415186	332.584226174412	298.121284669190	928.384941381006	280.718684935867	391.017536765685	797.837071054155	49.648681761034	385.210462949518	890.398066605792	27.090132297635	329.723926659554	984.249303115312	88.320002414599	381.655355746770	1091.258109241661	44.943027686404	392.530872324820	974.787018425591	782.159536531776	615.081499169661	888.849976819273	705.691225781319	670.610763609041	983.710489700371	648.458137138713	620.118705078539	978.325424343229	541.840458566609	661.031146575636	890.161272595835	449.721240898401	618.246777806789	784.435987807190	430.702966423740	691.753623454363	800.747287079274	339.331650158058	613.081457909208	583.557025731815	223.159118079011	570.333078363016	620.033530119225	142.924991566546	637.065655542998	746.347437755910	136.901674383418	633.637764857104	805.401785904420	42.659385652868	626.220352482170	
55	2.610285714286	926.167627716412	997.827292793344	567.164510562513	976.616270888701	966.901176455319	326.743136767891	1041.454413646343	1442.972391592681	462.238732719478	913.112462361079	1513.679103667561	604.773738613337	931.389013107005	1571.999702107739	421.153178812821	1028.642570607211	1511.430090104179	259.215720251751	980.049734969464	1193.399873125070	115.231536559505	1124.247200772069	946.799835834093	130.785596062763	801.234505852419	1191.888951447647	719.888748083100	1015.992742099316	997.038725470220	705.241057135976	998.960845929216	749.011126249214	324.236633823966	931.951060556002	675.562543337412	280.036299972345	999.612817131317	622.691606197928	353.565560275084	1002.849760060481	506.906070986020	365.919199994582	954.364179122890	402.606835262512	381.707729696133	899.046684768507	332.740689148566	297.916588858200	921.331979399151	280.740186598000	390.591537301429	790.133695735546	49.613254741618	385.194814380309	882.693436455230	27.115789531384	329.647879354179	976.560076299577	88.286967947562	381.509969580550	1083.545956624879	45.054195974303	392.443578776978	975.505239499201	784.446694290936	614.410663782979	889.703740096581	708.178514970431	670.482268891371	984.018635106583	651.008563903718	619.683492949716	979.563913547674	545.325405012017	661.834495663413	894.538750798803	451.105694682740	620.771891156294	788.636380628836	429.957764232379	693.017569768732	809.489645199553	337.588515596484	617.056992568183	598.300221055873	210.547103599043	573.004563705128	636.313774227481	135.550154792897	644.719669999077	762.503184819540	134.648329962428	644.134789793021	825.263854699163	42.825749465706	642.991966615284	
56	2.627142857143	925.191494642624	999.497288731818	567.333720037627	975.116129443388	967.021748841254	325.676227199202	1039.605634184527	1444.361953321534	460.169630260516	911.031818634765	1514.653918165132	602.727761098747	929.159457030928	1572.870120499167	419.082962938223	1026.635637596464	1512.676459597621	257.303951918768	981.295436097250	1193.602157018437	114.348015877871	1128.413415308171	948.841278732644	130.936910921099	798.839162786233	1192.893636940654	717.743140806936	1014.210585976298	998.737922184244	702.429892219088	995.452980223952	748.291606560599	324.063526623353	927.202040433136	675.658351259945	280.088252400232	994.461277374652	621.945570251777	353.322963575444	996.408375241843	506.466821823185	365.454608674977	947.715174661867	402.502769234501	381.495583541593	891.798678156572	332.827946595734	298.061631206819	914.332446646491	280.711154032197	390.491731549114	782.433915904129	49.502735386965	385.284305226974	875.010913691121	27.162065209095	329.623957458762	968.861498539510	88.232318752936	381.459171686119	1075.869597849731	45.131963199832	392.352866007645	975.688509471859	786.276441153772	613.852269331776	889.878656961810	710.321814324980	670.348508259733	983.645285850238	653.201793390980	619.310548861916	980.251584183814	548.636794950883	662.719313103392	899.303318444506	452.097944366098	623.409588978362	793.448441003323	428.034618229586	694.305815101565	819.821789315471	334.985655201937	621.368478668524	616.317465998997	195.461690989873	576.216764607066	656.177163977915	126.163405491260	652.792091446983	781.979783999344	131.607818948734	655.109398044466	849.111821141042	43.172465519564	660.229106192906	
57	2.644000000000	924.337907421972	1001.098481522277	567.677285144566	973.527707238637	966.951794844085	324.788043167764	1037.700322394589	1445.450767777789	458.218745189438	909.037898905131	1515.348090487536	600.876341920321	926.825884792489	1573.479382588868	417.189305404356	1024.460145145487	1513.642299542892	255.521979560545	982.321188309555	1193.561480271667	113.617129588527	1132.195246371790	950.598135692280	131.329367329054	796.608071584093	1193.704507925654	716.071132156079	1012.318198629048	999.989284897797	699.688615099125	992.095269727358	747.510871140039	324.267745765660	922.763449908381	675.575587886062	280.399689993267	989.478014429254	621.133362591501	353.513933079499	990.190567828932	505.969834090024	365.501548617988	941.246518353059	402.307626039684	381.694988976047	884.988344935123	332.825796237971	298.491920963664	907.447399733419	280.616173995043	390.707732366395	774.740601153162	49.319528591529	385.473825969198	867.352438530949	27.224176721080	329.650848920326	961.160362119705	88.153866879124	381.500009862880	1068.231709247403	45.168050527068	392.265005383259	975.419231707540	787.690338740650	613.390077747518	889.578244727349	712.111741774677	670.332738048589	982.874946515767	655.107348583900	619.117161575636	980.783468364372	551.798509718561	663.784988720166	904.682208959215	452.886709572701	626.116452330105	799.207854442644	425.209968824023	695.709183062641	831.771582720013	331.980777244171	625.879059718215	637.447584140435	179.221048463110	579.993029123273	679.338897018114	115.665038946185	660.862625703043	804.399660809111	128.313532665687	665.921557064673	876.247288079938	44.033769661818	676.749021859334	
